<svg width="750" height="750" viewBox="0 0 750 750" fill="none" xmlns="http://www.w3.org/2000/svg">
<rect width="750" height="750" fill="white"/>
<path d="M602 591.4C574.8 591 527.3 596.2 510.5 591.4C493.7 587 479.7 580.6 468.5 572.2C457.3 563.8 446.1 553.8 434.9 542.2C428.9 535.8 420.9 526.4 410.9 514C401.3 501.2 390.9 487 379.7 471.4C368.5 455.4 357.5 439.8 346.7 424.6C335.9 409 326.3 395.2 317.9 383.2C309.5 371.2 153 519.2 149 514L460.7 184.6C453.1 180.6 432.4 161.9 424 160.7C415.6 159.5 421.9 162.2 417.5 162.2V157H554.3V164C548.7 164 558 159.5 548 160.7C538 161.9 511.3 180.6 502.1 184.6L352.1 346C358.5 353.6 325.5 321.5 335.5 334.7C345.5 347.9 384.4 409 396 424.6C407.6 440.2 420.4 458.8 432 474C444 488.8 458.9 503.2 468.5 514C479.3 525.6 492.7 537.4 501.5 547C510.7 556.6 521.4 565 533 572.2C544.6 579.4 546.4 578.4 564 584L602 591.4ZM183.5 581.2L247.5 571C253.1 571 289.6 568.7 300 567.5C310.4 566.3 227.5 557.6 236.3 553.6V184.6C227.5 180.6 201.4 163.4 191 162.2C180.6 161 189.1 164 183.5 164V157H341.3V164C335.7 164 344.9 161 334.5 162.2C324.5 163.4 297.7 180.6 288.5 184.6V553.6C297.7 557.6 307.7 560.2 318.5 561.4C329.3 562.6 337.7 563.2 343.7 563.2V581.2H183.5Z" fill="black"/>
<path d="M337.638 319.075C331.243 319.507 405.89 421.868 453.243 475.507C529.284 559.534 562.403 580.18 609.638 584.075" stroke="black" strokeWidth="4"/>
</svg>
