<?xml version="1.0" encoding="UTF-8"?>
<svg xmlns="http://www.w3.org/2000/svg" xmlns:xlink="http://www.w3.org/1999/xlink" width="190px" height="190px" viewBox="0 0 190 190" version="1.1">
<g id="surface1">
<rect x="0" y="0" width="190" height="190" style="fill:rgb(100%,100%,100%);fill-opacity:1;stroke:none;"/>
<path style=" stroke:none;fill-rule:nonzero;fill:rgb(0%,0%,0%);fill-opacity:1;" d="M 152.507812 149.820312 C 145.617188 149.71875 133.582031 151.039062 129.328125 149.820312 C 125.070312 148.707031 121.523438 147.085938 118.6875 144.957031 C 115.847656 142.828125 113.011719 140.296875 110.175781 137.355469 C 108.65625 135.734375 106.628906 133.355469 104.09375 130.214844 C 101.664062 126.96875 99.027344 123.375 96.191406 119.421875 C 93.351562 115.367188 90.566406 111.414062 87.832031 107.566406 C 85.09375 103.613281 82.664062 100.117188 80.535156 97.078125 C 78.40625 94.039062 38.761719 131.53125 37.746094 130.214844 L 116.710938 46.765625 C 114.785156 45.753906 109.542969 41.015625 107.414062 40.710938 C 105.285156 40.40625 106.882812 41.089844 105.765625 41.089844 L 105.765625 39.773438 L 140.421875 39.773438 L 140.421875 41.546875 C 139.003906 41.546875 141.359375 40.40625 138.828125 40.710938 C 136.292969 41.015625 129.53125 45.753906 127.199219 46.765625 L 89.199219 87.652344 C 90.820312 89.578125 82.460938 81.445312 84.992188 84.789062 C 87.527344 88.132812 97.382812 103.613281 100.320312 107.566406 C 103.257812 111.515625 106.5 116.230469 109.441406 120.078125 C 112.480469 123.828125 116.253906 127.476562 118.6875 130.214844 C 121.421875 133.152344 124.816406 136.140625 127.046875 138.574219 C 129.378906 141.003906 132.089844 143.132812 135.027344 144.957031 C 137.964844 146.78125 138.421875 146.527344 142.878906 147.945312 Z M 46.488281 147.238281 L 62.699219 144.652344 C 64.117188 144.652344 73.367188 144.070312 76 143.765625 C 78.632812 143.460938 57.632812 141.257812 59.863281 140.246094 L 59.863281 46.765625 C 57.632812 45.753906 51.019531 41.394531 48.386719 41.089844 C 45.753906 40.785156 47.90625 41.546875 46.488281 41.546875 L 46.488281 39.773438 L 86.460938 39.773438 L 86.460938 41.546875 C 85.042969 41.546875 87.375 40.785156 84.738281 41.089844 C 82.207031 41.394531 75.417969 45.753906 73.085938 46.765625 L 73.085938 140.246094 C 75.417969 141.257812 77.949219 141.917969 80.6875 142.222656 C 83.421875 142.523438 85.550781 142.675781 87.070312 142.675781 L 87.070312 147.238281 Z M 46.488281 147.238281 "/>
<path style="fill:none;strokeWidth:4;stroke-linecap:butt;stroke-linejoin:miter;stroke:rgb(0%,0%,0%);stroke-opacity:1;stroke-miterlimit:4;" d="M 337.638775 319.073808 C 331.23972 319.505551 405.885074 421.875 453.238076 475.503701 C 529.286595 559.539474 562.407484 580.186061 609.63713 584.071752 " transform="matrix(0.253333,0,0,0.253333,0,0)"/>
</g>
</svg>
